PathFileType	4	(x/y/z)	S10_P20_T26
DataRate	CameraRate	NumFrames	NumMarkers	Units	OrigDataRate	OrigDataStartFrame	OrigNumFrames
240	240	9	51	mm	240	363	414
Frame#	Time	Sternum			R.Acromium			L.Acromium			Top.Head			R.ASIS			L.ASIS			R.PSIS			L.PSIS			R.Great.Tro			L.Great.Tro			R.Iliac.Crest			L.Iliac.Crest			V.Sacral			R.Thigh.Upper.Post			R.Thigh.Lower.Ant			R.Thigh.Lower.Post			R.Thigh.Upper.Ant			R.Knee.Lat			R.Knee.Med			R.Shank.Upper.Post			R.Shank.Lower.Ant			R.Shank.Lower.Post			R.Shank.Upper.Ant			R.Ankle.Lat			R.Ankle.Med			R.Heel.Upper			R.Heel.Med			R.Heel.Lat			R.Toe.Lat			R.Toe.Med			R.Toe.Tip			L.Thigh.Upper.Post			L.Thigh.Lower.Ant			L.Thigh.Lower.Post			L.Thigh.Upper.Ant			L.Knee.Lat			L.Knee.Med			L.Shank.Upper.Post			L.Shank.Lower.Ant			L.Shank.Lower.Post			L.Shank.Upper.Ant			L.Ankle.Lat			L.Ankle.Med			L.Heel.Upper			L.Heel.Med			L.Heel.Lat			L.Toe.Lat			L.Toe.Med			L.Toe.Tip			Cervical.Spine			Back			
		X1	Y1	Z1	X2	Y2	Z2	X3	Y3	Z3	X4	Y4	Z4	X5	Y5	Z5	X6	Y6	Z6	X7	Y7	Z7	X8	Y8	Z8	X9	Y9	Z9	X10	Y10	Z10	X11	Y11	Z11	X12	Y12	Z12	X13	Y13	Z13	X14	Y14	Z14	X15	Y15	Z15	X16	Y16	Z16	X17	Y17	Z17	X18	Y18	Z18	X19	Y19	Z19	X20	Y20	Z20	X21	Y21	Z21	X22	Y22	Z22	X23	Y23	Z23	X24	Y24	Z24	X25	Y25	Z25	X26	Y26	Z26	X27	Y27	Z27	X28	Y28	Z28	X29	Y29	Z29	X30	Y30	Z30	X31	Y31	Z31	X32	Y32	Z32	X33	Y33	Z33	X34	Y34	Z34	X35	Y35	Z35	X36	Y36	Z36	X37	Y37	Z37	X38	Y38	Z38	X39	Y39	Z39	X40	Y40	Z40	X41	Y41	Z41	X42	Y42	Z42	X43	Y43	Z43	X44	Y44	Z44	X45	Y45	Z45	X46	Y46	Z46	X47	Y47	Z47	X48	Y48	Z48	X49	Y49	Z49	X50	Y50	Z50	X51	Y51	Z51	

363	1.5083	587.62	1256	292.31	443.86	1406.8	433.9	493.11	1451.4	139.49	460.04	1735.6	318.87	528.94	994.06	383.8	536.2	1005.1	153.88	330.01	1011.1	292.54	339.46	1020.6	211.78	464.19	915.54	455.39	466.66	946.52	93.681	429.59	1072.1	423.87	474.11	1079.8	125.2	313.68	981.69	252.45	545.42	714.66	448.84	619.34	659.38	405.49	566.1	628.2	436.41	598.86	748.15	412.82	606.01	514.17	391.76	587.25	512.18	264	619.82	280.99	394.79	703.2	247.56	378.49	648.68	212.42	388.12	678.88	320.55	384.14	710.97	115.67	368.32	711.45	130.84	289.53	672.22	55.216	317.12	689.82	33.231	289.5	683.94	33.13	351.55	848.14	76.181	398.01	871.29	98.067	291.93	918.03	132.95	334.97	357.04	692.58	107.68	404.24	595.33	128.32	332.34	602.13	131.77	433.56	678.76	106	337.62	507.63	137.95	357.9	502.41	266	197.25	333.16	143.41	223.05	226.49	158.34	169.74	261.05	154.66	251.54	297.02	147.3	146.44	134.39	168.79	168.59	144.16	253.25	70.806	119.84	213.23	74.895	88.009	247.9	69.228	87.545	183.02	237.23	39.188	144.18	268.6	44.824	252.06	322.13	45.915	205.02	390.6	1479.4	284.22	307.33	1272.7	247.88
364	1.5125	593.29	1255.4	292.63	449.6	1406.2	434.46	498.4	1450.8	139.94	465.36	1735.1	319.14	534.82	993.5	384.06	541.84	1004.5	154.11	335.77	1010.5	292.96	345.19	1020	212.21	470.3	915.04	455.7	472.22	945.77	93.989	435.48	1071.5	424.27	479.72	1079.3	125.52	319.44	981.04	252.88	551.86	714.41	448.82	625.86	659.29	405.36	572.69	627.99	436.3	605.24	748.02	412.81	612.5	513.93	391.52	593.86	512.12	263.94	624.66	280.66	394.59	707.58	246.47	377.8	652.86	211.87	387.97	683.97	319.68	383.44	713.92	114.78	367.85	713.98	129.65	289.02	673.88	55.647	316.96	690.79	33.151	289.35	685.19	33.449	351.47	850.33	73.297	396.97	873.38	94.427	290.74	921.04	128.49	333.53	362.88	691.62	108.19	410.27	594.43	128.74	338.37	601.13	132.33	439.44	677.92	106.4	343.51	506.82	138.42	363.88	501.43	266.46	201.34	334.01	143.5	225.81	227.05	158.32	172.96	262.22	154.63	255.21	297.22	147.42	147.98	135.81	168.66	170.3	145.28	253	72.283	122.2	212.97	75.985	90.471	247.74	70.249	89.847	182.86	237.4	39.197	144.15	268.94	44.774	251.86	322.24	45.762	205.04	396.13	1478.8	284.88	312.92	1272.1	248.58
365	1.5167	598.98	1255	292.97	455.38	1405.6	435.05	503.69	1450.3	140.4	470.7	1734.7	319.41	540.72	993	384.31	547.48	1003.9	154.35	341.55	1009.9	293.4	350.95	1019.3	212.64	476.44	914.61	456.02	477.8	945.03	94.314	441.39	1071	424.68	485.34	1078.7	125.84	325.2	980.44	253.34	558.32	714.22	448.8	632.39	659.24	405.23	579.29	627.84	436.19	611.65	747.93	412.79	618.97	513.75	391.29	600.49	512.13	263.89	629.4	280.4	394.39	711.88	245.41	377.15	656.92	211.38	387.82	688.99	318.85	382.78	716.68	113.94	367.41	716.4	128.51	288.54	675.36	56.138	316.81	691.56	33.129	289.22	686.21	33.819	351.39	852.27	70.369	396.05	875.28	90.738	289.7	923.85	123.92	332.27	368.86	690.62	108.72	416.47	593.52	129.19	344.56	600.09	132.9	445.45	677.08	106.82	349.59	506	138.89	370.03	500.43	266.92	205.58	334.9	143.6	228.7	227.65	158.31	176.32	263.44	154.61	259.03	297.46	147.53	149.65	137.31	168.55	172.13	146.46	252.74	73.919	124.72	212.73	77.207	93.086	247.59	71.391	92.309	182.72	237.58	39.226	144.13	269.29	44.713	251.64	322.36	45.612	205.07	401.68	1478.3	285.57	318.52	1271.5	249.3
366	1.5208	604.69	1254.5	293.31	461.2	1405.1	435.64	508.98	1449.9	140.87	476.04	1734.3	319.69	546.64	992.57	384.57	553.13	1003.4	154.58	347.34	1009.4	293.85	356.71	1018.8	213.09	482.61	914.24	456.35	483.4	944.31	94.656	447.34	1070.5	425.1	490.96	1078.3	126.16	330.99	979.87	253.81	564.77	714.09	448.76	638.91	659.25	405.1	585.88	627.74	436.07	618.07	747.9	412.76	625.43	513.63	391.09	607.13	512.21	263.85	634.06	280.2	394.19	716.09	244.38	376.56	660.87	210.93	387.66	693.95	318.05	382.17	719.27	113.14	367	718.72	127.43	288.09	676.67	56.677	316.68	692.17	33.162	289.11	687.04	34.234	351.32	853.96	67.441	395.25	877.02	87.051	288.8	926.48	119.32	331.19	374.97	689.61	109.27	422.83	592.6	129.64	350.92	599.01	133.5	451.58	676.24	107.25	355.85	505.15	139.36	376.37	499.4	267.38	209.98	335.83	143.72	231.75	228.31	158.29	179.84	264.74	154.61	262.99	297.75	147.64	151.46	138.91	168.44	174.11	147.7	252.47	75.728	127.39	212.5	78.575	95.862	247.46	72.668	94.939	182.59	237.77	39.278	144.12	269.66	44.643	251.41	322.46	45.464	205.1	407.23	1477.9	286.28	324.13	1271	250.05
367	1.525	610.43	1254.2	293.66	467.04	1404.6	436.24	514.27	1449.5	141.35	481.4	1734	319.97	552.58	992.22	384.83	558.8	1002.9	154.82	353.15	1008.9	294.3	362.48	1018.2	213.54	488.81	913.95	456.69	489.02	943.62	95.015	453.31	1070.1	425.53	496.58	1077.8	126.48	336.78	979.34	254.29	571.23	714.02	448.73	645.41	659.3	404.96	592.46	627.71	435.95	624.48	747.92	412.72	631.87	513.56	390.92	613.74	512.37	263.83	638.64	280.05	394.01	720.22	243.39	376.01	664.74	210.54	387.5	698.84	317.3	381.62	721.71	112.39	366.6	720.94	126.41	287.67	677.85	57.253	316.55	692.65	33.245	289.02	687.72	34.683	351.26	855.45	64.555	394.57	878.61	83.413	288.04	928.94	114.73	330.27	381.21	688.56	109.85	429.37	591.68	130.1	357.45	597.89	134.12	457.85	675.41	107.69	362.29	504.3	139.83	382.91	498.34	267.83	214.56	336.82	143.85	234.95	229.03	158.27	183.53	266.09	154.61	267.1	298.08	147.72	153.41	140.59	168.34	176.24	149.01	252.19	77.729	130.22	212.3	80.106	98.804	247.35	74.095	97.747	182.49	237.98	39.355	144.11	270.05	44.564	251.17	322.57	45.318	205.14	412.8	1477.5	287	329.75	1270.6	250.81
368	1.5292	616.19	1253.9	294.01	472.92	1404.2	436.85	519.56	1449.2	141.83	486.77	1733.7	320.25	558.54	991.93	385.1	564.46	1002.5	155.06	358.96	1008.5	294.77	368.26	1017.7	214	495.03	913.73	457.05	494.65	942.95	95.392	459.3	1069.8	425.97	502.2	1077.5	126.81	342.58	978.86	254.8	577.67	714.02	448.7	651.9	659.4	404.81	599	627.73	435.82	630.89	747.99	412.68	638.27	513.54	390.77	620.29	512.6	263.83	643.14	279.97	393.84	724.27	242.44	375.51	668.51	210.2	387.33	703.66	316.59	381.12	724	111.71	366.22	723.08	125.47	287.28	678.91	57.853	316.44	693.04	33.371	288.94	688.28	35.158	351.19	856.75	61.75	394.01	880.07	79.864	287.41	931.21	110.22	329.51	387.57	687.5	110.45	436.07	590.75	130.55	364.15	596.74	134.74	464.25	674.6	108.13	368.94	503.44	140.28	389.66	497.26	268.26	219.31	337.86	143.99	238.31	229.81	158.25	187.38	267.52	154.62	271.38	298.47	147.79	155.52	142.36	168.24	178.53	150.39	251.91	79.938	133.22	212.12	81.816	101.92	247.26	75.689	100.74	182.4	238.21	39.462	144.11	270.45	44.478	250.93	322.68	45.171	205.19	418.38	1477.1	287.74	335.38	1270.2	251.59
369	1.5333	621.96	1253.6	294.37	478.83	1403.9	437.46	524.84	1449	142.32	492.15	1733.5	320.54	564.51	991.73	385.36	570.13	1002.1	155.3	364.78	1008.1	295.26	374.04	1017.3	214.47	501.25	913.6	457.42	500.31	942.31	95.789	465.32	1069.6	426.42	507.81	1077.1	127.15	348.39	978.42	255.33	584.1	714.08	448.67	658.35	659.55	404.67	605.52	627.81	435.71	637.29	748.12	412.62	644.64	513.59	390.64	626.77	512.89	263.86	647.56	279.96	393.67	728.23	241.55	375.06	672.18	209.93	387.15	708.42	315.93	380.68	726.15	111.09	365.86	725.14	124.6	286.91	679.86	58.464	316.32	693.35	33.533	288.88	688.74	35.65	351.13	857.88	59.062	393.55	881.41	76.44	286.89	933.32	105.83	328.89	394.05	686.41	111.08	442.94	589.82	130.99	371.01	595.56	135.37	470.77	673.79	108.58	375.77	502.57	140.71	396.63	496.14	268.65	224.25	338.95	144.14	241.85	230.65	158.21	191.42	269.01	154.63	275.82	298.91	147.83	157.8	144.22	168.15	181.01	151.83	251.62	82.376	136.39	211.97	83.722	105.21	247.2	77.468	103.93	182.35	238.46	39.604	144.12	270.87	44.387	250.68	322.78	45.023	205.24	423.96	1476.9	288.49	341.02	1269.9	252.39
370	1.5375	627.75	1253.4	294.73	484.77	1403.6	438.08	530.12	1448.8	142.8	497.54	1733.3	320.83	570.48	991.6	385.63	575.8	1001.8	155.54	370.61	1007.8	295.76	379.82	1016.9	214.96	507.48	913.54	457.8	505.97	941.7	96.204	471.35	1069.4	426.87	513.42	1076.9	127.49	354.2	978.03	255.89	590.52	714.21	448.65	664.78	659.74	404.53	612	627.95	435.6	643.67	748.3	412.57	650.99	513.69	390.54	633.15	513.24	263.91	651.89	280	393.52	732.11	240.7	374.65	675.75	209.72	386.97	713.1	315.31	380.29	728.17	110.54	365.51	727.1	123.82	286.57	680.72	59.074	316.22	693.61	33.723	288.83	689.12	36.15	351.07	858.87	56.525	393.19	882.63	73.17	286.47	935.26	101.6	328.39	400.66	685.3	111.73	449.98	588.89	131.4	378.05	594.35	136	477.42	673.01	109.01	382.8	501.7	141.11	403.82	494.99	269.01	229.38	340.1	144.29	245.58	231.56	158.15	195.64	270.57	154.66	280.44	299.4	147.85	160.26	146.18	168.05	183.67	153.34	251.33	85.059	139.74	211.84	85.842	108.68	247.15	79.449	107.31	182.32	238.73	39.784	144.14	271.3	44.296	250.43	322.89	44.872	205.3	429.56	1476.7	289.24	346.65	1269.6	253.2
371	1.5417	633.55	1253.3	295.09	490.73	1403.4	438.69	535.4	1448.7	143.29	502.95	1733.2	321.13	576.46	991.54	385.9	581.46	1001.6	155.79	376.43	1007.5	296.27	385.6	1016.5	215.46	513.71	913.57	458.2	511.65	941.13	96.64	477.39	1069.3	427.32	519.01	1076.7	127.84	360.01	977.69	256.46	596.91	714.39	448.64	671.17	660	404.4	618.45	628.15	435.5	650.02	748.53	412.51	657.29	513.84	390.46	639.42	513.65	263.98	656.14	280.1	393.38	735.89	239.9	374.27	679.22	209.57	386.78	717.7	314.73	379.95	730.06	110.07	365.16	728.98	123.13	286.23	681.49	59.672	316.12	693.82	33.933	288.79	689.43	36.649	351.01	859.71	54.164	392.9	883.75	70.078	286.14	937.04	97.576	327.99	407.38	684.18	112.39	457.19	587.97	131.79	385.25	593.11	136.62	484.2	672.25	109.43	390.02	500.82	141.46	411.25	493.81	269.31	234.7	341.3	144.44	249.49	232.53	158.08	200.07	272.2	154.69	285.24	299.95	147.85	162.92	148.23	167.95	186.54	154.93	251.03	88.008	143.25	211.75	88.193	112.34	247.13	81.65	110.9	182.31	239.04	40.008	144.16	271.76	44.208	250.18	322.99	44.715	205.36	435.15	1476.5	290.01	352.29	1269.4	254.02
